<svg width="28" height="28" viewBox="0 0 28 28" fill="none" xmlns="http://www.w3.org/2000/svg">
<path fill-rule="evenodd" clip-rule="evenodd" d="M2.61875 25.38C4.57341 27.3334 7.71475 27.3334 14.0001 27.3334C20.2854 27.3334 23.4281 27.3334 25.3801 25.38C27.3334 23.4294 27.3334 20.2854 27.3334 14C27.3334 7.71469 27.3334 4.57202 25.3801 2.61869C23.4294 0.666687 20.2854 0.666687 14.0001 0.666687C7.71475 0.666687 4.57208 0.666687 2.61875 2.61869C0.666748 4.57335 0.666748 7.71469 0.666748 14C0.666748 20.2854 0.666748 23.428 2.61875 25.38ZM10.6667 9.66669C9.8097 9.66669 8.97189 9.92083 8.25928 10.397C7.54666 10.8731 6.99125 11.5499 6.66327 12.3417C6.33529 13.1335 6.24948 14.0048 6.41668 14.8454C6.58388 15.686 6.99659 16.4581 7.60262 17.0641C8.20865 17.6702 8.98077 18.0829 9.82136 18.2501C10.6619 18.4173 11.5332 18.3315 12.325 18.0035C13.1169 17.6755 13.7936 17.1201 14.2698 16.4075C14.7459 15.6949 15.0001 14.8571 15.0001 14C15.0001 13.7348 15.1054 13.4804 15.293 13.2929C15.4805 13.1054 15.7349 13 16.0001 13C16.2653 13 16.5197 13.1054 16.7072 13.2929C16.8947 13.4804 17.0001 13.7348 17.0001 14C17.0001 15.2526 16.6286 16.4771 15.9327 17.5186C15.2368 18.5601 14.2477 19.3719 13.0904 19.8513C11.9331 20.3306 10.6597 20.456 9.43118 20.2117C8.20263 19.9673 7.07414 19.3641 6.18841 18.4784C5.30267 17.5926 4.69948 16.4641 4.45511 15.2356C4.21073 14.007 4.33616 12.7336 4.81551 11.5764C5.29487 10.4191 6.10663 9.42996 7.14814 8.73405C8.18965 8.03813 9.41413 7.66669 10.6667 7.66669C10.932 7.66669 11.1863 7.77204 11.3739 7.95958C11.5614 8.14712 11.6667 8.40147 11.6667 8.66669C11.6667 8.9319 11.5614 9.18626 11.3739 9.37379C11.1863 9.56133 10.932 9.66669 10.6667 9.66669ZM21.6667 14C21.6667 15.1493 21.2102 16.2515 20.3975 17.0641C19.5849 17.8768 18.4827 18.3334 17.3334 18.3334C17.0682 18.3334 16.8138 18.4387 16.6263 18.6262C16.4388 18.8138 16.3334 19.0681 16.3334 19.3334C16.3334 19.5986 16.4388 19.8529 16.6263 20.0405C16.8138 20.228 17.0682 20.3334 17.3334 20.3334C18.586 20.3334 19.8105 19.9619 20.852 19.266C21.8935 18.5701 22.7053 17.5809 23.1847 16.4237C23.664 15.2664 23.7894 13.993 23.5451 12.7644C23.3007 11.5359 22.6975 10.4074 21.8118 9.52168C20.926 8.63594 19.7975 8.03275 18.569 7.78838C17.3404 7.54401 16.067 7.66943 14.9098 8.14878C13.7525 8.62814 12.7634 9.4399 12.0674 10.4814C11.3715 11.5229 11.0001 12.7474 11.0001 14C11.0001 14.2652 11.1054 14.5196 11.293 14.7071C11.4805 14.8947 11.7349 15 12.0001 15C12.2653 15 12.5197 14.8947 12.7072 14.7071C12.8947 14.5196 13.0001 14.2652 13.0001 14C13.0001 12.8507 13.4566 11.7485 14.2693 10.9359C15.0819 10.1232 16.1841 9.66669 17.3334 9.66669C18.4827 9.66669 19.5849 10.1232 20.3975 10.9359C21.2102 11.7485 21.6667 12.8507 21.6667 14Z" fill="#633CFF"/>
</svg>
