<svg width="17" height="16" viewBox="0 0 17 16" fill="none" xmlns="http://www.w3.org/2000/svg">
<path d="M9.15387 12.6508C9.24127 12.7379 9.31062 12.8413 9.35793 12.9553C9.40525 13.0693 9.42961 13.1914 9.42961 13.3148C9.42961 13.4382 9.40525 13.5604 9.35793 13.6743C9.31062 13.7883 9.24127 13.8918 9.15387 13.9789L8.68981 14.4429C7.81045 15.3223 6.61778 15.8163 5.37418 15.8163C4.13058 15.8163 2.93792 15.3223 2.05856 14.4429C1.1792 13.5636 0.685181 12.3709 0.685181 11.1273C0.685181 9.88372 1.1792 8.69105 2.05856 7.81169L3.94293 5.9281C4.78784 5.0811 5.92463 4.58921 7.12045 4.55319C8.31627 4.51717 9.4806 4.93974 10.375 5.73435C10.4673 5.81642 10.5426 5.91588 10.5965 6.02705C10.6504 6.13821 10.6818 6.2589 10.6891 6.38223C10.6963 6.50556 10.6792 6.62911 10.6387 6.74582C10.5983 6.86254 10.5352 6.97014 10.4531 7.06247C10.371 7.15481 10.2716 7.23007 10.1604 7.28397C10.0492 7.33787 9.92853 7.36934 9.80521 7.3766C9.68188 7.38385 9.55833 7.36675 9.44161 7.32625C9.3249 7.28576 9.2173 7.22267 9.12496 7.1406C8.58865 6.66429 7.89062 6.4109 7.17365 6.43224C6.45668 6.45359 5.77496 6.74807 5.26793 7.25544L3.38512 9.13669C2.85759 9.66422 2.56122 10.3797 2.56122 11.1258C2.56122 11.8718 2.85759 12.5873 3.38512 13.1148C3.91265 13.6423 4.62814 13.9387 5.37418 13.9387C6.12023 13.9387 6.83571 13.6423 7.36324 13.1148L7.82731 12.6508C7.91438 12.5636 8.01777 12.4944 8.13158 12.4473C8.24539 12.4001 8.36739 12.3758 8.49059 12.3758C8.61379 12.3758 8.73578 12.4001 8.8496 12.4473C8.96341 12.4944 9.0668 12.5636 9.15387 12.6508ZM14.9414 1.557C14.0613 0.678998 12.8689 0.185913 11.6257 0.185913C10.3826 0.185913 9.1902 0.678998 8.31012 1.557L7.84606 2.02107C7.66994 2.19719 7.57099 2.43606 7.57099 2.68513C7.57099 2.9342 7.66994 3.17307 7.84606 3.34919C8.02218 3.52531 8.26105 3.62426 8.51012 3.62426C8.75919 3.62426 8.99806 3.52531 9.17418 3.34919L9.63825 2.88513C10.1658 2.3576 10.8813 2.06123 11.6273 2.06123C12.3734 2.06123 13.0888 2.3576 13.6164 2.88513C14.1439 3.41266 14.4403 4.12815 14.4403 4.87419C14.4403 5.62023 14.1439 6.33572 13.6164 6.86325L11.7328 8.74763C11.2253 9.25479 10.5432 9.54884 9.82606 9.56961C9.10891 9.59038 8.41093 9.33629 7.87496 8.85935C7.78263 8.77727 7.67503 8.71419 7.55831 8.67369C7.4416 8.6332 7.31805 8.61609 7.19472 8.62335C7.07139 8.6306 6.9507 8.66208 6.83954 8.71597C6.72837 8.76987 6.62891 8.84514 6.54684 8.93747C6.46476 9.02981 6.40168 9.13741 6.36118 9.25412C6.32069 9.37084 6.30358 9.49439 6.31084 9.61772C6.31809 9.74104 6.34957 9.86173 6.40346 9.9729C6.45736 10.0841 6.53263 10.1835 6.62496 10.2656C7.5187 11.06 8.68225 11.4829 9.87751 11.4476C11.0728 11.4123 12.2093 10.9215 13.0547 10.0758L14.939 8.19216C15.8181 7.3123 16.312 6.11957 16.3125 4.87585C16.3129 3.63212 15.8198 2.43905 14.9414 1.55857V1.557Z" fill="#737373"/>
</svg>
